<svg xmlns="http://www.w3.org/2000/svg" xmlns:xlink="http://www.w3.org/1999/xlink" width="1648" height="526pt" viewBox="0 0 1236 525.55"><g id="graph0" class="graph" transform="scale(1 1) rotate(0) translate(4 521.5476)"><title>-e</title><polygon fill="#fff" stroke="transparent" points="-4 4 -4 -521.548 1232 -521.548 1232 4 -4 4"/><g id="clust1" class="cluster"><title>cluster_#&lt;static-init&gt;</title><polygon fill="none" stroke="#00f" points="8 -8 8 -509.548 1220 -509.548 1220 -8 8 -8"/><text x="614" y="-494.348" fill="#000" font-family="Times,serif" font-size="14" text-anchor="middle">#&lt;static-init&gt;</text></g><g id="node1" class="node"><title>bb#&lt;static-init&gt;_0</title><polygon fill="none" stroke="#000" points="307.85 -438.37 403 -416.652 498.15 -438.37 498.061 -473.51 307.939 -473.51 307.85 -438.37"/><text x="333.019" y="-450.882" fill="#000" font-family="Times,serif" font-size="14" text-anchor="start">block[id=0]()</text><text x="333.019" y="-436.882" fill="#000" font-family="Times,serif" font-size="14" text-anchor="start">&lt;unconditional&gt;</text></g><g id="node3" class="node"><title>bb#&lt;static-init&gt;_2</title><ellipse cx="403" cy="-335.363" fill="none" stroke="#000" rx="147.586" ry="45.011"/><text x="306.671" y="-352.163" fill="#000" font-family="Times,serif" font-size="14" text-anchor="start">block[id=2]()</text><text x="306.671" y="-338.163" fill="#000" font-family="Times,serif" font-size="14" text-anchor="start">outerLoops: 1</text><text x="306.671" y="-324.163" fill="#000" font-family="Times,serif" font-size="14" text-anchor="start">&lt;whileTemp&gt;$4: TrueClass = true</text><text x="306.671" y="-310.163" fill="#000" font-family="Times,serif" font-size="14" text-anchor="start">&lt;whileTemp&gt;$4: TrueClass</text></g><g id="edge1" class="edge"><title>bb#&lt;static-init&gt;_0-&gt;bb#&lt;static-init&gt;_2</title><path fill="none" stroke="#000" stroke-width="2" d="M403,-416.3837C403,-408.4272 403,-399.654 403,-390.907"/><polygon fill="#000" stroke="#000" stroke-width="2" points="406.5 -390.701 403 -380.701 399.5 -390.701 406.5 -390.701"/></g><g id="node2" class="node"><title>bb#&lt;static-init&gt;_1</title><polygon fill="none" stroke="#000" points="1122.551 -88 943.508 -88 897.449 -16 1076.492 -16 1122.551 -88"/><text x="923.796" y="-54.8" fill="#000" font-family="Times,serif" font-size="14" text-anchor="start">block[id=1]()</text><text x="923.796" y="-40.8" fill="#000" font-family="Times,serif" font-size="14" text-anchor="start">&lt;unconditional&gt;</text></g><g id="edge2" class="edge"><title>bb#&lt;static-init&gt;_1-&gt;bb#&lt;static-init&gt;_1</title><path fill="none" stroke="#000" stroke-width="2" d="M1114.395,-75.193C1130.1191,-71.6177 1140.7753,-63.8867 1140.7753,-52 1140.7753,-35.4537 1120.1272,-26.9597 1093.9039,-26.5182"/><polygon fill="#000" stroke="#000" stroke-width="2" points="1093.533 -23.025 1083.612 -26.743 1093.686 -30.024 1093.533 -23.025"/></g><g id="node4" class="node"><title>bb#&lt;static-init&gt;_4</title><ellipse cx="403" cy="-189.054" fill="none" stroke="#000" rx="387.235" ry="65.108"/><text x="137.267" y="-219.854" fill="#000" font-family="Times,serif" font-size="14" text-anchor="start">block[id=4]()</text><text x="137.267" y="-205.854" fill="#000" font-family="Times,serif" font-size="14" text-anchor="start">outerLoops: 1</text><text x="137.267" y="-191.854" fill="#000" font-family="Times,serif" font-size="14" text-anchor="start">&lt;statTemp&gt;$6: T.class_of(&lt;root&gt;) = self</text><text x="137.267" y="-177.854" fill="#000" font-family="Times,serif" font-size="14" text-anchor="start">&lt;statTemp&gt;$7: Integer(42) = 42</text><text x="137.267" y="-163.854" fill="#000" font-family="Times,serif" font-size="14" text-anchor="start">&lt;statTemp&gt;$5: NilClass = &lt;statTemp&gt;$6: T.class_of(&lt;root&gt;).puts(&lt;statTemp&gt;$7: Integer(42))</text><text x="137.267" y="-149.854" fill="#000" font-family="Times,serif" font-size="14" text-anchor="start">&lt;unconditional&gt;</text></g><g id="edge3" class="edge"><title>bb#&lt;static-init&gt;_2-&gt;bb#&lt;static-init&gt;_4</title><path fill="none" stroke="#000" stroke-width="2" d="M396.6987,-289.8715C396.4221,-281.732 396.2734,-273.0567 396.2526,-264.341"/><polygon fill="#000" stroke="#000" stroke-width="2" points="399.753 -264.132 396.287 -254.121 392.753 -264.109 399.753 -264.132"/></g><g id="node5" class="node"><title>bb#&lt;static-init&gt;_3</title><ellipse cx="1010" cy="-189.054" fill="none" stroke="#000" rx="201.63" ry="45.011"/><text x="875.472" y="-205.854" fill="#000" font-family="Times,serif" font-size="14" text-anchor="start">block[id=3]()</text><text x="875.472" y="-191.854" fill="#000" font-family="Times,serif" font-size="14" text-anchor="start">&lt;returnMethodTemp&gt;$2 = nil</text><text x="875.472" y="-177.854" fill="#000" font-family="Times,serif" font-size="14" text-anchor="start">&lt;finalReturn&gt; = return &lt;returnMethodTemp&gt;$2</text><text x="875.472" y="-163.854" fill="#000" font-family="Times,serif" font-size="14" text-anchor="start">&lt;unconditional&gt;</text></g><g id="edge4" class="edge"><title>bb#&lt;static-init&gt;_2-&gt;bb#&lt;static-init&gt;_3</title><polygon fill="#000" stroke="transparent" points="530.43 -312.969 542.299 -310.687 554.495 -308.317 566.991 -305.864 579.76 -303.331 592.774 -300.719 606.008 -298.034 619.432 -295.276 633.021 -292.449 646.747 -289.557 660.583 -286.602 674.502 -283.586 688.476 -280.514 702.48 -277.387 716.485 -274.209 730.465 -270.982 744.392 -267.711 758.239 -264.396 771.979 -261.042 785.586 -257.652 799.031 -254.228 803.309 -253.118 807.614 -251.988 811.94 -250.838 816.286 -249.67 820.649 -248.484 825.027 -247.282 829.415 -246.065 833.813 -244.833 838.217 -243.589 842.624 -242.334 847.031 -241.068 851.436 -239.792 855.836 -238.508 860.229 -237.218 864.611 -235.921 868.979 -234.62 873.332 -233.315 877.666 -232.007 881.979 -230.698 886.267 -229.39 886.267 -229.39 881.975 -230.687 877.659 -231.984 873.322 -233.279 868.965 -234.572 864.593 -235.862 860.208 -237.146 855.812 -238.425 851.409 -239.697 847 -240.96 842.59 -242.214 838.179 -243.457 833.773 -244.689 829.372 -245.908 824.98 -247.113 820.6 -248.304 816.234 -249.477 811.886 -250.634 807.557 -251.772 803.25 -252.89 798.969 -253.988 785.516 -257.375 771.902 -260.727 758.154 -264.043 744.299 -267.319 730.365 -270.553 716.379 -273.74 702.366 -276.88 688.356 -279.968 674.375 -283.002 660.449 -285.979 646.607 -288.896 632.875 -291.75 619.281 -294.539 605.851 -297.26 592.612 -299.909 579.592 -302.485 566.818 -304.983 554.318 -307.401 542.117 -309.737 530.243 -311.987 530.43 -312.969"/><polygon fill="#000" stroke="#000" points="887.328 -232.725 895.863 -226.449 885.277 -226.033 887.328 -232.725"/></g><g id="edge6" class="edge"><title>bb#&lt;static-init&gt;_4-&gt;bb#&lt;static-init&gt;_2</title><path fill="none" stroke="#000" stroke-width="2" d="M409.7132,-254.1206C409.7915,-262.6978 409.7448,-271.4252 409.573,-279.8233"/><polygon fill="#000" stroke="#000" stroke-width="2" points="406.073 -279.781 409.301 -289.872 413.07 -279.97 406.073 -279.781"/></g><g id="edge5" class="edge"><title>bb#&lt;static-init&gt;_3-&gt;bb#&lt;static-init&gt;_1</title><path fill="none" stroke="#000" stroke-width="2" d="M1010,-143.7974C1010,-129.2414 1010,-113.0958 1010,-98.455"/><polygon fill="#000" stroke="#000" stroke-width="2" points="1013.5 -98.105 1010 -88.105 1006.5 -98.105 1013.5 -98.105"/></g></g></svg>